HIERARCHY
ROOT Hips
{
	OFFSET 0.000000 83.214638 0.000000
	CHANNELS 6 Xposition Yposition Zposition Xrotation Yrotation Zrotation
	JOINT Pelvis
	{
		OFFSET 0.000000 0.000000 0.000000
		CHANNELS 3 Xrotation Yrotation Zrotation
		JOINT LeftUpLeg
		{
			OFFSET 8.479700 -4.795502 -0.379100
			CHANNELS 3 Xrotation Yrotation Zrotation
			JOINT LeftLeg
			{
				OFFSET 0.024144 -32.555107 0.112900
				CHANNELS 3 Xrotation Yrotation Zrotation
				JOINT LeftFoot
				{
					OFFSET -0.024144 -32.638630 -3.012600
					CHANNELS 3 Xrotation Yrotation Zrotation
					JOINT LeftToeBase
					{
						OFFSET 0.970200 -13.225400 11.864200
						CHANNELS 3 Xrotation Yrotation Zrotation
						End Site
						{
							OFFSET 0.000000 12.319262 0.000000
						}
					}
					JOINT LFootTongue
					{
						OFFSET 1.142400 -1.059800 6.665200
						CHANNELS 3 Xrotation Yrotation Zrotation
						End Site
						{
							OFFSET 0.000000 12.319262 0.000000
						}
					}
				}
				JOINT LeftPantLeg
				{
					OFFSET 0.918482 -16.533964 -2.284700
					CHANNELS 3 Xrotation Yrotation Zrotation
					End Site
					{
						OFFSET 0.350399 24.744368 0.000000
					}
				}
			}
		}
		JOINT RightUpLeg
		{
			OFFSET -8.479700 -4.795502 -0.379100
			CHANNELS 3 Xrotation Yrotation Zrotation
			JOINT RightLeg
			{
				OFFSET -0.023144 -32.555092 0.112900
				CHANNELS 3 Xrotation Yrotation Zrotation
				JOINT RightFoot
				{
					OFFSET 0.023144 -32.638641 -3.012700
					CHANNELS 3 Xrotation Yrotation Zrotation
					JOINT RightToeBase
					{
						OFFSET -0.970200 -13.225400 11.864200
						CHANNELS 3 Xrotation Yrotation Zrotation
						End Site
						{
							OFFSET 0.000000 12.319244 0.000000
						}
					}
					JOINT RFootTongue
					{
						OFFSET -1.142200 -1.059800 6.665200
						CHANNELS 3 Xrotation Yrotation Zrotation
						End Site
						{
							OFFSET 0.000000 12.319243 0.000000
						}
					}
				}
				JOINT RightPantLeg
				{
					OFFSET -0.919482 -16.533978 -2.284800
					CHANNELS 3 Xrotation Yrotation Zrotation
					End Site
					{
						OFFSET -0.350400 24.744419 0.000000
					}
				}
			}
		}
	}
	JOINT Spine
	{
		OFFSET 0.000000 7.722000 1.166200
		CHANNELS 3 Xrotation Yrotation Zrotation
		JOINT Spine1
		{
			OFFSET 0.000000 12.024101 0.248800
			CHANNELS 3 Xrotation Yrotation Zrotation
			JOINT Spine2
			{
				OFFSET 0.000000 11.502998 -0.491200
				CHANNELS 3 Xrotation Yrotation Zrotation
				JOINT Neck
				{
					OFFSET 0.000000 18.430702 -3.123100
					CHANNELS 3 Xrotation Yrotation Zrotation
					JOINT Head
					{
						OFFSET 0.000000 9.051102 1.034000
						CHANNELS 3 Xrotation Yrotation Zrotation
						JOINT HairB
						{
							OFFSET 0.208400 24.786102 24.822300
							CHANNELS 3 Xrotation Yrotation Zrotation
							End Site
							{
								OFFSET 0.000000 32.263779 0.000000
							}
						}
						JOINT HairA
						{
							OFFSET -7.081100 24.428299 23.196600
							CHANNELS 3 Xrotation Yrotation Zrotation
							End Site
							{
								OFFSET 0.000000 32.263779 0.000000
							}
						}
						JOINT Hat
						{
							OFFSET 16.728800 15.048294 -15.439601
							CHANNELS 3 Xrotation Yrotation Zrotation
							End Site
							{
								OFFSET 0.000000 32.263779 0.000000
							}
						}
					}
				}
				JOINT LeftShoulder
				{
					OFFSET 6.197800 13.665199 -4.064700
					CHANNELS 3 Xrotation Yrotation Zrotation
					JOINT LeftArm
					{
						OFFSET 7.778100 -0.187103 -1.709300
						CHANNELS 3 Xrotation Yrotation Zrotation
						JOINT LeftForeArm
						{
							OFFSET 22.049376 0.000000 0.000000
							CHANNELS 3 Xrotation Yrotation Zrotation
							JOINT LeftHand
							{
								OFFSET 23.009392 0.000000 0.000000
								CHANNELS 3 Xrotation Yrotation Zrotation
								JOINT LeftHandThumb1
								{
									OFFSET 3.507191 -2.063065 3.133727
									CHANNELS 3 Xrotation Yrotation Zrotation
									JOINT LeftHandThumb2
									{
										OFFSET 3.101337 -1.790558 1.790558
										CHANNELS 3 Xrotation Yrotation Zrotation
										JOINT LeftHandThumb3
										{
											OFFSET 3.058640 -1.765907 1.765906
											CHANNELS 3 Xrotation Yrotation Zrotation
											End Site
											{
												OFFSET -0.415260 3.926476 -0.049563
											}
										}
									}
								}
								JOINT LeftHandIndex1
								{
									OFFSET 11.334419 -0.901459 3.706815
									CHANNELS 3 Xrotation Yrotation Zrotation
									JOINT LeftHandIndex2
									{
										OFFSET 3.283112 0.000000 0.000000
										CHANNELS 3 Xrotation Yrotation Zrotation
										JOINT LeftHandIndex3
										{
											OFFSET 3.323853 0.000000 0.000000
											CHANNELS 3 Xrotation Yrotation Zrotation
											End Site
											{
												OFFSET -1.135597 3.097809 0.402452
											}
										}
									}
								}
								JOINT LeftHandMiddle1
								{
									OFFSET 11.335861 0.000000 0.000000
									CHANNELS 3 Xrotation Yrotation Zrotation
									JOINT LeftHandMiddle2
									{
										OFFSET 3.410492 0.000000 0.000000
										CHANNELS 3 Xrotation Yrotation Zrotation
										JOINT LeftHandMiddle3
										{
											OFFSET 3.312172 0.000000 0.000000
											CHANNELS 3 Xrotation Yrotation Zrotation
											End Site
											{
												OFFSET -1.150200 3.080154 0.400270
											}
										}
									}
								}
								JOINT LeftHandRing1
								{
									OFFSET 11.514786 -0.013176 -3.003090
									CHANNELS 3 Xrotation Yrotation Zrotation
									JOINT LeftHandRing2
									{
										OFFSET 3.053307 0.000000 0.000000
										CHANNELS 3 Xrotation Yrotation Zrotation
										JOINT LeftHandRing3
										{
											OFFSET 3.295807 0.000000 0.000000
											CHANNELS 3 Xrotation Yrotation Zrotation
											End Site
											{
												OFFSET -1.281006 3.013344 0.375733
											}
										}
									}
								}
								JOINT LeftHandPinky1
								{
									OFFSET 10.518692 -0.960396 -5.730441
									CHANNELS 3 Xrotation Yrotation Zrotation
									JOINT LeftHandPinky2
									{
										OFFSET 2.861649 0.000000 0.000000
										CHANNELS 3 Xrotation Yrotation Zrotation
										JOINT LeftHandPinky3
										{
											OFFSET 2.863380 0.000000 0.000000
											CHANNELS 3 Xrotation Yrotation Zrotation
											End Site
											{
												OFFSET -0.843597 2.711159 0.369971
											}
										}
									}
								}
							}
							JOINT LSleeve
							{
								OFFSET 6.676277 -0.344902 -1.011730
								CHANNELS 3 Xrotation Yrotation Zrotation
								End Site
								{
									OFFSET 0.000000 14.885353 0.000000
								}
							}
						}
					}
				}
				JOINT RightShoulder
				{
					OFFSET -6.197800 13.665199 -4.064700
					CHANNELS 3 Xrotation Yrotation Zrotation
					JOINT RightArm
					{
						OFFSET -7.778100 -0.187103 -1.709300
						CHANNELS 3 Xrotation Yrotation Zrotation
						JOINT RightForeArm
						{
							OFFSET -22.049376 0.000000 0.000000
							CHANNELS 3 Xrotation Yrotation Zrotation
							JOINT RightHand
							{
								OFFSET -23.009392 0.000000 0.000000
								CHANNELS 3 Xrotation Yrotation Zrotation
								JOINT RightHandThumb1
								{
									OFFSET -3.507191 -2.063065 3.133727
									CHANNELS 3 Xrotation Yrotation Zrotation
									JOINT RightHandThumb2
									{
										OFFSET -3.101337 -1.790558 1.790558
										CHANNELS 3 Xrotation Yrotation Zrotation
										JOINT RightHandThumb3
										{
											OFFSET -3.058640 -1.765907 1.765906
											CHANNELS 3 Xrotation Yrotation Zrotation
											End Site
											{
												OFFSET 0.415260 3.926476 -0.049563
											}
										}
									}
								}
								JOINT RightHandIndex1
								{
									OFFSET -11.334419 -0.901459 3.706815
									CHANNELS 3 Xrotation Yrotation Zrotation
									JOINT RightHandIndex2
									{
										OFFSET -3.283112 0.000000 0.000000
										CHANNELS 3 Xrotation Yrotation Zrotation
										JOINT RightHandIndex3
										{
											OFFSET -3.323853 0.000000 0.000000
											CHANNELS 3 Xrotation Yrotation Zrotation
											End Site
											{
												OFFSET 1.135597 3.097809 0.402452
											}
										}
									}
								}
								JOINT RightHandMiddle1
								{
									OFFSET -11.335861 0.000000 0.000000
									CHANNELS 3 Xrotation Yrotation Zrotation
									JOINT RightHandMiddle2
									{
										OFFSET -3.410492 0.000000 0.000000
										CHANNELS 3 Xrotation Yrotation Zrotation
										JOINT RightHandMiddle3
										{
											OFFSET -3.312172 0.000000 0.000000
											CHANNELS 3 Xrotation Yrotation Zrotation
											End Site
											{
												OFFSET 1.150200 3.080154 0.400270
											}
										}
									}
								}
								JOINT RightHandRing1
								{
									OFFSET -11.514786 -0.013176 -3.003090
									CHANNELS 3 Xrotation Yrotation Zrotation
									JOINT RightHandRing2
									{
										OFFSET -3.053307 0.000000 0.000000
										CHANNELS 3 Xrotation Yrotation Zrotation
										JOINT RightHandRing3
										{
											OFFSET -3.295807 0.000000 0.000000
											CHANNELS 3 Xrotation Yrotation Zrotation
											End Site
											{
												OFFSET 1.281006 3.013344 0.375733
											}
										}
									}
								}
								JOINT RightHandPinky1
								{
									OFFSET -10.518692 -0.960396 -5.730441
									CHANNELS 3 Xrotation Yrotation Zrotation
									JOINT RightHandPinky2
									{
										OFFSET -2.861649 0.000000 0.000000
										CHANNELS 3 Xrotation Yrotation Zrotation
										JOINT RightHandPinky3
										{
											OFFSET -2.863380 0.000000 0.000000
											CHANNELS 3 Xrotation Yrotation Zrotation
											End Site
											{
												OFFSET 0.843597 2.711159 0.369971
											}
										}
									}
								}
							}
							JOINT RSleeve
							{
								OFFSET -6.676277 -0.344902 -1.011730
								CHANNELS 3 Xrotation Yrotation Zrotation
								End Site
								{
									OFFSET 0.000000 14.885353 0.000000
								}
							}
						}
					}
				}
				JOINT Backpack
				{
					OFFSET 0.000000 -2.471497 36.677502
					CHANNELS 3 Xrotation Yrotation Zrotation
					End Site
					{
						OFFSET 0.000000 20.427315 0.000000
					}
				}
				JOINT Hood
				{
					OFFSET 0.000000 18.754097 -10.431000
					CHANNELS 3 Xrotation Yrotation Zrotation
					JOINT Hood1
					{
						OFFSET 0.000000 -5.011002 -7.685901
						CHANNELS 3 Xrotation Yrotation Zrotation
						End Site
						{
							OFFSET 0.000000 9.175140 0.000000
						}
					}
				}
				JOINT LHoodieString
				{
					OFFSET 5.250500 16.397697 3.089900
					CHANNELS 3 Xrotation Yrotation Zrotation
					JOINT LHoodieString1
					{
						OFFSET 0.257700 -6.364304 3.694600
						CHANNELS 3 Xrotation Yrotation Zrotation
						JOINT LHoodieString2
						{
							OFFSET 0.000000 -9.643799 2.679100
							CHANNELS 3 Xrotation Yrotation Zrotation
							End Site
							{
								OFFSET 0.000000 10.009018 0.000000
							}
						}
					}
				}
				JOINT RHoodieString
				{
					OFFSET -5.250500 16.397697 3.089900
					CHANNELS 3 Xrotation Yrotation Zrotation
					JOINT RHoodieString1
					{
						OFFSET -0.257700 -6.364304 3.694600
						CHANNELS 3 Xrotation Yrotation Zrotation
						JOINT RHoodieString2
						{
							OFFSET 0.000000 -9.643799 2.679100
							CHANNELS 3 Xrotation Yrotation Zrotation
							End Site
							{
								OFFSET 0.000000 10.009018 0.000000
							}
						}
					}
				}
			}
			JOINT LBackpack_Strap
			{
				OFFSET 15.223200 -7.719803 -6.610900
				CHANNELS 3 Xrotation Yrotation Zrotation
				End Site
				{
					OFFSET 0.000000 16.040596 0.000000
				}
			}
			JOINT RBackpack_Strap
			{
				OFFSET -15.223000 -7.719803 -6.610900
				CHANNELS 3 Xrotation Yrotation Zrotation
				End Site
				{
					OFFSET 0.000000 16.040596 0.000000
				}
			}
		}
	}
	JOINT BoyFacialAnim_Joint
	{
		OFFSET 1.000000 -82.208099 -1.550900
		CHANNELS 3 Xrotation Yrotation Zrotation
		End Site
		{
			OFFSET 0.000000 30.012791 0.000000
		}
	}
}
MOTION
Frames: 4
Frame Time: 0.016667
89.139023 61.755543 173.514114 -100.721460 -66.177109 -182.652755 0.000000 -0.000002 -0.000000 -65.371529 13.175372 34.458475 95.372554 -3.421533 -9.766443 13.046086 -10.352617 -7.801992 -0.000001 0.000001 -0.000000 -0.000001 0.000001 -0.000000 -0.000002 -0.000001 -0.000000 -60.348396 16.341890 -49.004179 60.868242 2.512902 -2.796732 3.188756 2.015293 18.014551 0.000000 0.000003 0.000001 0.000000 0.000003 0.000001 -0.000001 -0.000000 0.000001 11.557674 1.571751 1.876152 4.854285 11.245306 9.491957 -0.264529 4.650232 6.859574 17.054960 5.940621 9.977822 17.218053 33.848099 -18.256836 -0.000000 0.000002 0.000001 -0.000000 0.000002 0.000001 -0.000000 0.000002 0.000001 0.094777 -6.199208 -0.123044 9.665285 -8.508371 -0.913032 0.000014 -16.045871 0.000004 35.770462 4.134792 2.795903 -21.849359 -26.533926 3.214725 14.707552 16.467035 -15.962743 -0.000001 -0.000001 -0.000001 -1.323889 -11.050863 -6.554816 0.019610 0.479409 -4.683538 0.000001 0.000001 -0.000003 -0.648679 1.485326 -20.430349 0.000905 0.102840 -1.003625 -0.000001 0.000001 -0.000003 5.314382 12.518955 -31.340808 0.021992 0.507681 -4.960398 -0.000002 -0.000002 -0.000001 2.322036 20.828214 -37.538115 0.232417 1.635307 -16.176137 0.000001 0.000001 -0.000000 0.000002 -0.000000 0.000001 0.702717 0.170139 17.086864 -42.474337 9.627234 15.642591 0.000001 21.324551 -0.000006 54.171036 3.808796 -28.436347 -17.608779 2.987695 1.533006 -5.026834 -26.669281 -12.857310 0.000002 -0.000001 -0.000000 0.237654 -2.716280 11.266504 0.242385 -1.484337 18.547368 0.000000 0.000000 0.000005 2.290396 -8.097837 24.945357 0.422937 -1.940983 24.583203 0.000002 0.000001 0.000003 5.299369 -10.955978 36.062849 0.774652 -2.574003 33.493762 0.000001 -0.000001 -0.000003 6.881491 -15.240310 43.779091 0.835670 -2.663821 34.829068 0.000001 0.000000 0.000004 -0.000002 -0.000001 -0.000004 -0.000000 0.000001 0.000001 -0.000000 0.000001 0.000001 -0.000000 0.000001 0.000001 -0.000000 0.000001 0.000001 -0.000000 0.000001 -0.000001 -0.000001 0.000002 0.000001 -0.000000 0.000001 0.000001 -0.000000 0.000001 -0.000001 -0.000001 0.000002 0.000001 -0.000001 -0.000001 -0.000002 -0.000001 -0.000001 -0.000002 0.000000 -0.000002 -0.000000 
91.590775 58.702164 176.745407 -100.027362 -65.476639 -183.379924 -0.000000 -0.000003 0.000000 -65.696236 12.955280 33.255781 96.104225 -3.319964 -9.500454 12.714254 -10.214070 -7.192754 0.000004 -0.000000 -0.000000 0.000004 -0.000000 -0.000000 0.000001 0.000000 0.000000 -60.792741 15.601352 -48.814952 57.484108 2.141123 -3.303774 6.793050 2.678470 20.066443 -0.000001 0.000000 -0.000002 -0.000001 0.000000 -0.000002 0.000001 -0.000002 -0.000004 11.655178 1.396018 1.400241 5.544256 11.383312 9.197802 -0.042809 4.627745 6.563425 15.374957 5.803015 9.269358 18.722390 32.861427 -18.303616 0.000001 0.000000 0.000003 0.000001 0.000000 0.000003 0.000001 0.000000 0.000003 0.193432 -6.244336 -0.490219 8.939521 -6.671608 0.394169 -0.000005 -17.704894 -0.000002 40.311780 8.263371 4.360197 -22.662703 -26.776619 3.864299 11.870382 19.263008 -11.470794 -0.000001 0.000001 -0.000000 0.129997 -11.645898 -0.445211 0.021087 0.497166 -4.857440 -0.000000 -0.000000 -0.000000 -0.475362 0.547753 -12.557677 0.000931 0.104590 -1.020728 -0.000001 -0.000002 0.000007 3.960326 12.243254 -23.933493 0.023675 0.526792 -5.147716 -0.000002 -0.000002 -0.000001 1.720381 20.343990 -29.864900 0.251796 1.700722 -16.842468 0.000000 -0.000002 0.000001 0.000002 -0.000002 0.000001 0.757833 0.219493 18.065763 -42.841084 9.112736 16.864217 -0.000002 24.910779 -0.000006 54.071384 4.622351 -27.029939 -17.424508 3.155060 1.313342 -4.888491 -26.946234 -12.345321 0.000001 -0.000000 -0.000000 0.256215 -2.735462 12.032149 0.266313 -1.553841 19.450470 -0.000002 -0.000002 0.000001 2.288264 -8.009711 25.439333 0.480162 -2.061435 26.221892 0.000001 -0.000000 -0.000002 5.282064 -10.807331 36.655651 0.848269 -2.681828 35.099594 -0.000003 0.000001 0.000000 6.682618 -15.123022 43.637863 0.926466 -2.789654 36.737706 -0.000002 0.000000 0.000000 0.000002 0.000000 0.000002 0.000000 0.000000 0.000000 0.000000 0.000000 0.000000 0.000000 0.000000 0.000000 0.000000 0.000000 0.000000 0.000000 0.000000 -0.000001 0.000001 -0.000000 0.000001 0.000000 0.000000 0.000000 0.000000 0.000000 -0.000001 0.000001 -0.000000 0.000001 0.000001 0.000000 -0.000000 0.000001 0.000000 -0.000000 -0.000000 -0.000003 0.000000 
93.996780 55.303047 180.139069 -98.981332 -65.951774 -183.939603 -0.000000 -0.000001 0.000000 -65.656512 12.282725 30.709234 96.909278 -3.129726 -8.768593 12.052612 -8.893325 -6.677074 0.000001 -0.000000 0.000000 0.000001 -0.000000 0.000000 0.000000 -0.000001 0.000001 -60.615853 14.026076 -49.635459 53.702697 1.796071 -3.888405 9.991426 3.681239 21.924079 -0.000000 0.000001 0.000000 -0.000000 0.000001 0.000000 0.000003 0.000002 0.000000 11.758147 1.134969 1.337266 5.957492 11.339480 9.012856 0.073764 4.191048 6.295742 13.799716 5.635492 8.568027 19.962058 31.780689 -18.252618 -0.000000 -0.000002 -0.000000 -0.000000 -0.000002 -0.000000 -0.000000 -0.000002 -0.000000 0.268091 -6.237658 -0.973503 7.893512 -4.110882 1.992688 -0.000017 -21.678771 -0.000006 45.854219 11.612319 6.910725 -24.357783 -27.217484 5.367377 4.744776 23.727328 -0.421152 0.000003 -0.000001 0.000001 2.172450 -12.057198 7.954025 0.022640 0.515076 -5.032874 -0.000000 -0.000001 0.000003 0.020037 -0.647343 -0.983344 0.000964 0.106392 -1.038274 -0.000001 0.000000 -0.000002 1.956681 11.211957 -12.644204 0.025439 0.546085 -5.336646 -0.000004 -0.000001 -0.000002 0.969414 19.372267 -18.258793 0.272120 1.766394 -17.513911 -0.000001 -0.000003 -0.000001 0.000002 -0.000002 0.000004 0.787626 0.240701 18.556500 -42.487916 7.719415 18.634645 -0.000002 29.131286 0.000008 53.659602 5.152950 -25.209962 -17.240929 3.321296 1.091995 -4.748467 -27.220665 -11.832475 0.000001 0.000001 -0.000001 0.274443 -2.754147 12.796015 0.291298 -1.622816 20.351549 -0.000002 -0.000002 0.000003 2.284435 -7.922245 25.932007 0.540685 -2.179899 27.857051 -0.000001 -0.000002 -0.000002 5.261788 -10.660289 37.246811 0.924719 -2.787317 36.701981 -0.000003 0.000000 0.000000 6.484897 -15.005196 43.497602 1.021196 -2.912105 38.642314 -0.000000 -0.000000 0.000002 -0.000002 0.000001 -0.000001 0.000001 -0.000001 -0.000001 0.000001 -0.000001 -0.000001 0.000001 -0.000001 -0.000001 0.000001 -0.000001 -0.000001 0.000001 -0.000001 -0.000001 0.000001 0.000000 -0.000001 0.000001 -0.000001 -0.000001 0.000001 -0.000001 -0.000001 0.000001 0.000000 -0.000001 0.000003 0.000000 0.000001 0.000003 0.000000 0.000001 -0.000000 -0.000001 0.000000 
96.573761 51.446487 183.659058 -98.890887 -65.726904 -186.138036 -0.000000 -0.000001 0.000000 -66.280484 10.693278 28.717773 97.928035 -2.950505 -7.927730 12.599730 -8.485223 -6.208821 0.000001 0.000000 0.000001 0.000001 0.000000 0.000001 0.000002 0.000000 0.000001 -62.509311 13.647628 -48.876103 52.901963 2.443970 -5.590069 11.839807 4.402688 24.271461 -0.000001 -0.000004 -0.000001 -0.000001 -0.000004 -0.000001 0.000003 -0.000002 0.000002 11.876029 0.871594 1.621593 6.189670 11.236939 8.879457 0.150941 3.491569 6.062969 12.506456 5.434264 7.875163 20.393692 30.654907 -18.008844 -0.000000 0.000002 0.000003 -0.000000 0.000002 0.000003 -0.000000 0.000002 0.000003 0.299034 -6.173945 -1.669671 6.360276 2.416613 3.605614 -0.000005 -28.398059 -0.000016 50.134504 13.536602 11.094398 -26.147692 -27.717049 6.953356 -3.260717 25.444458 12.144128 -0.000000 0.000002 0.000001 4.001847 -11.998681 15.702204 0.024258 0.533128 -5.209778 -0.000000 -0.000001 -0.000000 0.680425 -1.545809 10.206249 0.001000 0.108236 -1.056271 0.000002 0.000002 -0.000001 0.308147 9.635004 -1.589517 0.027300 0.565508 -5.527086 -0.000003 0.000003 0.000002 0.405243 18.245684 -6.886051 0.293339 1.832268 -18.189892 -0.000000 -0.000001 0.000003 -0.000000 0.000000 -0.000000 1.035446 0.349696 19.024058 -41.972954 5.617789 20.313737 0.000009 34.549552 -0.000001 53.342200 5.393196 -23.168615 -17.059702 3.485428 0.870129 -4.607761 -27.490770 -11.322428 0.000004 0.000000 -0.000001 0.292229 -2.772324 13.552780 0.317100 -1.690737 21.244352 -0.000002 -0.000004 -0.000002 2.278987 -7.836092 26.419954 0.603952 -2.295546 29.477310 -0.000001 0.000000 -0.000000 5.238761 -10.515962 37.832227 1.003362 -2.889687 38.289822 -0.000004 0.000001 0.000001 6.289604 -14.887695 43.359216 1.119050 -3.030289 40.529700 -0.000003 -0.000001 0.000002 -0.000004 0.000002 -0.000003 0.000003 0.000001 -0.000004 0.000003 0.000001 -0.000004 0.000003 0.000001 -0.000004 0.000003 0.000001 -0.000004 0.000003 0.000001 -0.000003 0.000001 -0.000000 -0.000001 0.000003 0.000001 -0.000004 0.000003 0.000001 -0.000003 0.000001 -0.000000 -0.000001 0.000002 0.000001 -0.000000 0.000002 0.000001 -0.000000 -0.000000 -0.000001 0.000000 
